<svg xmlns="http://www.w3.org/2000/svg" version="1.1" xmlns:xlink="http://www.w3.org/1999/xlink" xmlns:svgjs="http://svgjs.dev/svgjs" width="2000" height="2655" viewBox="0 0 2000 2655"><g transform="matrix(1,0,0,1,-1.9155030638028165,1.0749055763135402)"><svg viewBox="0 0 186 247" data-background-color="#1ebbd7" preserveAspectRatio="xMidYMid meet" height="2655" width="2000" xmlns="http://www.w3.org/2000/svg" xmlns:xlink="http://www.w3.org/1999/xlink"><g id="tight-bounds" transform="matrix(1,0,0,1,0.17814955270984,-0.10000063177002971)"><svg viewBox="0 0 185.64370866235652 247.2" height="247.2" width="185.64370866235652"><g><svg viewBox="0 0 290.665410708839 387.045109392359" height="247.2" width="185.64370866235652"><g><svg viewBox="0 0 290.665410708839 387.045109392359" height="387.045109392359" width="290.665410708839"><g><svg viewBox="0 0 290.665410708839 387.045109392359" height="387.045109392359" width="290.665410708839"><g><svg viewBox="0 0 290.665410708839 245.672304" height="245.672304" width="290.665410708839"><path d="M289.985 52.692C288.618 27.191 284.724 20.102 284.724 20.102 272.767-6.164 257.845-0.502 244.44 3.272 220.773 3.425 197.201 9.035 173.588 12.044 124.026 12.503 74.04 4.955 24.724 23.57 20.091 29.282-4.806 24.692 0.824 55.956 2.3 68.961 7.684 83.395 7.52 95.329 8.258 97.42 9.282 92.626 9.72 95.635 11.25 103.744 13.751 99.919 15.801 104.713 12.945 117.515 14.994 128.174 16.948 139.343 13.505 142.25 9.091 140.873 7.11 150.513 6.905 157.5 5.798 156.174 4.582 155.868 3.694 155.664 1.903 156.429 2.204 158.622 3.229 166.119-1.171 170.454 1.589 177.798-0.31 185.755 2.901 192.64 2.464 201.259 2.409 202.993 2.71 204.472 3.188 204.88 5.306 207.073 2.218 211.357 2.546 215.998 24.273 247.721 47.845 225.791 70.105 240.377 75.885 230.177 71.539 243.998 73.849 241.856 75.652 239.357 76.964 249.71 79 243.845 79.315 242.162 78.836 238.184 79.957 238.949 80.544 239.357 81.064 239.255 81.146 236.909 81.269 233.39 80.189 235.583 79.902 233.747 83.004 224.465 82.239 246.548 85.149 245.63 85.013 242.927 84.166 239.051 85.901 239.561 87.623 235.685 87.677 232.472 89.208 241.193 89.263 243.08 89.536 244.406 89.973 245.324 94.756 235.838 99.511 248.69 104.526 244.406 107.601 239.714 110.552 246.956 113.668 245.171 114.761 243.743 115.868 241.193 116.92 245.477 129.806 246.395 143.539 242.57 155.756 245.63 188.401 239.918 223.287 247.976 257.709 240.428 265.826 237.521 274.257 233.39 282.169 230.075 282.169 230.075 288.577 220.997 288.577 180.196S289.944 144.495 290.149 112.007C290.354 79.519 291.31 78.193 289.944 52.692Z" opacity="1" fill="#ffffff" data-fill-palette-color="tertiary"></path><g transform="matrix(1,0,0,1,55.76832000000002,26.068561146666667)"><svg width="179.12877070883894" viewBox="-0.550000011920929 -35.599998474121094 32.95000076293945 35.599998474121094" height="193.53518170666666" data-palette-color="#1ebbd7"><path d="M32.4-31.25L29.65-25.2Q25.15-27.8 20-28.55L20-28.55 20 0 11.9 0 11.9-28.55Q6.75-27.8 2.2-25.2L2.2-25.2-0.55-31.25Q3.05-33.4 7.25-34.5 11.45-35.6 15.9-35.6L15.9-35.6Q20.4-35.6 24.63-34.5 28.85-33.4 32.4-31.25L32.4-31.25Z" opacity="1" transform="matrix(1,0,0,1,0,0)" fill="#000000" class="undefined-text-0" data-fill-palette-color="quaternary" id="text-0"></path></svg></g></svg></g><g transform="matrix(1,0,0,1,80.89524527802291,291.361315556583)"><svg viewBox="0 0 128.87492015279315 95.68379383577599" height="95.68379383577599" width="128.87492015279315"><g transform="matrix(1,0,0,1,0,0)"><svg width="128.87492015279315" viewBox="3.0999999046325684 -35.849998474121094 49.70000076293945 36.89999771118164" height="95.68379383577599" data-palette-color="#77d4fc"><path d="M17.75-35.05Q21.2-34.85 23.48-32.25 25.75-29.65 25.75-24.45L25.75-24.45Q25.75-21.05 24.3-19.05 22.85-17.05 20.95-16.28 19.05-15.5 17.6-15.5L17.6-15.5Q16.25-15.5 13.05-15.2L13.05-15.2Q11.2-15 10.05-14.95L10.05-14.95Q9.95-10.35 9.95-8.7L9.95-8.7Q9.95-2.2 10.1-1.65L10.1-1.65Q10.2-1.15 9.93-0.78 9.65-0.4 9.22-0.28 8.8-0.15 8.45-0.3L8.45-0.3Q8.3-0.35 7.6-0.35L7.6-0.35Q6.1-0.35 4.4-0.15L4.4-0.15Q3.6-0.05 3.35-0.48 3.1-0.9 3.1-1.8L3.1-1.8Q3.1-2.9 3.15-3.8L3.15-3.8 3.2-8 3.3-13.9Q3.6-24.5 3.6-30.45L3.6-30.45Q3.6-32.25 3.55-32.6L3.55-32.6Q3.45-33.7 3.45-33.9L3.45-33.9Q3.45-35.2 4-35.2L4-35.2Q4.25-35.2 5.03-35.15 5.8-35.1 7.2-35.1L7.2-35.1Q7.6-35.1 9.25-35.15 10.9-35.2 12.7-35.2L12.7-35.2Q15.35-35.2 17.75-35.05L17.75-35.05ZM16.2-19.1Q18.05-19.1 19.65-20.2 21.25-21.3 21.25-24.15L21.25-24.15Q21.25-27.2 20-28.78 18.75-30.35 16.35-30.8L16.35-30.8Q12.6-31.55 10.45-31.4L10.45-31.4Q10.45-30 10.4-29.3L10.4-29.3Q10.3-26.5 10.15-25.3L10.15-25.3Q9.95-23.55 10.05-21.35L10.05-21.35 10.15-19.4 12.5-19.25Q13.85-19.1 16.2-19.1L16.2-19.1ZM39.4-35.85Q44.15-35.85 47.22-33.98 50.3-32.1 52-30.4L52-30.4Q52.2-30.2 52.2-29.95L52.2-29.95Q52.2-29.8 52.07-29.58 51.95-29.35 51.9-29.25L51.9-29.25Q51.65-28.9 51.07-28.03 50.5-27.15 50.15-26.75L50.15-26.75Q50-26.55 49.82-26.33 49.65-26.1 49.52-26 49.4-25.9 49.15-25.9L49.15-25.9Q49.05-25.9 48.67-26.23 48.3-26.55 47.95-26.8L47.95-26.8Q45.95-28.55 44.05-29.8 42.15-31.05 40.4-31.05L40.4-31.05Q39-31.05 38.1-30.43 37.2-29.8 37.2-27.6L37.2-27.6Q37.2-25.45 38.8-24.25 40.4-23.05 43.05-21.95L43.05-21.95Q43.3-21.85 45.97-20.7 48.65-19.55 50.72-16.3 52.8-13.05 52.8-8.55L52.8-8.55Q52.8-3.75 49.2-1.35 45.6 1.05 39.25 1.05L39.25 1.05Q32.05 1.05 30.1-1.73 28.15-4.5 28.05-4.6L28.05-4.6Q27.85-4.85 27.85-5.1L27.85-5.1Q27.85-5.25 28.25-5.75L28.25-5.75Q28.9-6.65 30.15-7.9L30.15-7.9Q30.35-8.1 30.55-8.1L30.55-8.1Q30.8-8.1 31.1-7.73 31.4-7.35 31.6-7.15L31.6-7.15Q34.55-4.2 38.3-4.2L38.3-4.2Q40.2-4.2 41.6-4.93 43-5.65 43-7.65L43-7.65Q43-11.1 37.55-15L37.55-15Q36.65-15.6 35.85-16L35.85-16Q33.75-17.15 32.25-18.25 30.75-19.35 29.6-21.15 28.45-22.95 28.45-25.35L28.45-25.35Q28.45-28.35 30.32-30.75 32.2-33.15 34.82-34.5 37.45-35.85 39.4-35.85L39.4-35.85Z" opacity="1" transform="matrix(1,0,0,1,0,0)" fill="#ffffff" class="undefined-text-1" data-fill-palette-color="secondary" id="text-1"></path></svg></g></svg></g></svg></g></svg></g><g></g></svg></g><defs></defs></svg><rect width="185.64370866235652" height="247.2" fill="none" stroke="none" visibility="hidden"></rect></g></svg></g></svg>